<svg width="175" height="33" viewBox="0 0 175 33" fill="none" xmlns="http://www.w3.org/2000/svg">
<path d="M17.145 29.8183C25.5093 29.8183 32.2899 23.502 32.2899 15.7106C32.2899 7.91911 25.5093 1.60287 17.145 1.60287C8.78063 1.60287 2 7.91911 2 15.7106C2 23.502 8.78063 29.8183 17.145 29.8183Z" stroke="white" stroke-width="1.71" stroke-miterlimit="10"/>
<path d="M2 16.2331H32.2899" stroke="white" stroke-width="1.71" stroke-miterlimit="10"/>
<path d="M2 13.098H32.2899" stroke="white" stroke-width="1.71" stroke-miterlimit="10"/>
<path d="M3.04456 9.96298L30.4591 10.0732" stroke="white" stroke-width="1.71" stroke-miterlimit="10"/>
<path d="M2 19.3681H32.2899" stroke="white" stroke-width="1.71" stroke-miterlimit="10"/>
<path d="M3.12195 22.5032H31.1682" stroke="white" stroke-width="1.71" stroke-miterlimit="10"/>
<path d="M17.145 30.8633C25.5093 30.8633 32.2899 24.3131 32.2899 16.2331C32.2899 8.15304 25.5093 1.60287 17.145 1.60287C8.78063 1.60287 2 8.15304 2 16.2331C2 24.3131 8.78063 30.8633 17.145 30.8633Z" stroke="white" stroke-width="2.57" stroke-miterlimit="10"/>
<path d="M33.0762 13.106H36.3537C37.3587 13.106 38.3225 13.4429 39.033 14.0426C39.7436 14.6424 40.1429 15.4558 40.1429 16.3039V17.2153C40.1429 18.0634 39.7436 18.8768 39.033 19.4765C38.3225 20.0762 37.3587 20.4131 36.3537 20.4131H33.0762C32.8676 20.4131 32.6677 20.3432 32.5202 20.2188C32.3728 20.0943 32.2899 19.9256 32.2899 19.7496V13.7616C32.2899 13.5856 32.3728 13.4168 32.5202 13.2924C32.6677 13.1679 32.8676 13.098 33.0762 13.098V13.106Z" stroke="white" stroke-width="1.71" stroke-miterlimit="10"/>
<mask id="path-9-inside-1_127_8" fill="white">
<path d="M62.6087 10.6029H60.8474C60.7432 10.0962 60.5609 9.65117 60.3005 9.26765C60.0448 8.88412 59.7323 8.56216 59.363 8.30174C58.9984 8.03659 58.5936 7.83772 58.1485 7.70515C57.7034 7.57257 57.2394 7.50628 56.7565 7.50628C55.8758 7.50628 55.078 7.72882 54.363 8.1739C53.6528 8.61897 53.087 9.27475 52.6655 10.1412C52.2489 11.0077 52.0405 12.0707 52.0405 13.3301C52.0405 14.5896 52.2489 15.6526 52.6655 16.5191C53.087 17.3855 53.6528 18.0413 54.363 18.4864C55.078 18.9315 55.8758 19.154 56.7565 19.154C57.2394 19.154 57.7034 19.0877 58.1485 18.9551C58.5936 18.8226 58.9984 18.6261 59.363 18.3657C59.7323 18.1005 60.0448 17.7762 60.3005 17.3926C60.5609 17.0044 60.7432 16.5593 60.8474 16.0574H62.6087C62.4762 16.8008 62.2347 17.466 61.8843 18.0532C61.5339 18.6403 61.0983 19.1398 60.5775 19.5517C60.0566 19.9589 59.4719 20.2691 58.8232 20.4821C58.1793 20.6952 57.4904 20.8017 56.7565 20.8017C55.5159 20.8017 54.4127 20.4987 53.4468 19.8926C52.4809 19.2866 51.7209 18.4248 51.167 17.3074C50.613 16.19 50.336 14.8642 50.336 13.3301C50.336 11.7961 50.613 10.4703 51.167 9.35287C51.7209 8.23545 52.4809 7.37371 53.4468 6.76765C54.4127 6.16159 55.5159 5.85856 56.7565 5.85856C57.4904 5.85856 58.1793 5.96509 58.8232 6.17816C59.4719 6.39123 60.0566 6.70373 60.5775 7.11566C61.0983 7.52286 61.5339 8.02001 61.8843 8.60714C62.2347 9.18952 62.4762 9.85477 62.6087 10.6029ZM77.7277 13.3301C77.7277 14.8642 77.4507 16.19 76.8967 17.3074C76.3428 18.4248 75.5828 19.2866 74.6169 19.8926C73.651 20.4987 72.5478 20.8017 71.3072 20.8017C70.0667 20.8017 68.9635 20.4987 67.9976 19.8926C67.0317 19.2866 66.2717 18.4248 65.7178 17.3074C65.1638 16.19 64.8868 14.8642 64.8868 13.3301C64.8868 11.7961 65.1638 10.4703 65.7178 9.35287C66.2717 8.23545 67.0317 7.37371 67.9976 6.76765C68.9635 6.16159 70.0667 5.85856 71.3072 5.85856C72.5478 5.85856 73.651 6.16159 74.6169 6.76765C75.5828 7.37371 76.3428 8.23545 76.8967 9.35287C77.4507 10.4703 77.7277 11.7961 77.7277 13.3301ZM76.0231 13.3301C76.0231 12.0707 75.8124 11.0077 75.391 10.1412C74.9744 9.27475 74.4086 8.61897 73.6936 8.1739C72.9834 7.72882 72.1879 7.50628 71.3072 7.50628C70.4266 7.50628 69.6287 7.72882 68.9138 8.1739C68.2035 8.61897 67.6377 9.27475 67.2163 10.1412C66.7997 11.0077 66.5913 12.0707 66.5913 13.3301C66.5913 14.5896 66.7997 15.6526 67.2163 16.5191C67.6377 17.3855 68.2035 18.0413 68.9138 18.4864C69.6287 18.9315 70.4266 19.154 71.3072 19.154C72.1879 19.154 72.9834 18.9315 73.6936 18.4864C74.4086 18.0413 74.9744 17.3855 75.391 16.5191C75.8124 15.6526 76.0231 14.5896 76.0231 13.3301ZM80.6893 20.6029V6.05742H89.4109V7.61992H82.4507V12.5347H88.7575V14.0972H82.4507V20.6029H80.6893ZM92.4276 20.6029V6.05742H101.149V7.61992H94.189V12.5347H100.496V14.0972H94.189V20.6029H92.4276ZM104.166 20.6029V6.05742H112.944V7.61992H105.927V12.5347H112.49V14.0972H105.927V19.0404H113.058V20.6029H104.166ZM116.119 20.6029V6.05742H124.897V7.61992H117.88V12.5347H124.443V14.0972H117.88V19.0404H125.011V20.6029H116.119ZM133.697 20.6029V6.05742H135.459V19.0404H142.22V20.6029H133.697ZM146.709 6.05742V20.6029H144.947V6.05742H146.709ZM150.837 6.05742L155.155 18.3017H155.325L159.644 6.05742H161.49L156.149 20.6029H154.331L148.99 6.05742H150.837ZM163.756 20.6029V6.05742H172.534V7.61992H165.517V12.5347H172.08V14.0972H165.517V19.0404H172.648V20.6029H163.756Z"/>
</mask>
<path d="M62.6087 10.6029H60.8474C60.7432 10.0962 60.5609 9.65117 60.3005 9.26765C60.0448 8.88412 59.7323 8.56216 59.363 8.30174C58.9984 8.03659 58.5936 7.83772 58.1485 7.70515C57.7034 7.57257 57.2394 7.50628 56.7565 7.50628C55.8758 7.50628 55.078 7.72882 54.363 8.1739C53.6528 8.61897 53.087 9.27475 52.6655 10.1412C52.2489 11.0077 52.0405 12.0707 52.0405 13.3301C52.0405 14.5896 52.2489 15.6526 52.6655 16.5191C53.087 17.3855 53.6528 18.0413 54.363 18.4864C55.078 18.9315 55.8758 19.154 56.7565 19.154C57.2394 19.154 57.7034 19.0877 58.1485 18.9551C58.5936 18.8226 58.9984 18.6261 59.363 18.3657C59.7323 18.1005 60.0448 17.7762 60.3005 17.3926C60.5609 17.0044 60.7432 16.5593 60.8474 16.0574H62.6087C62.4762 16.8008 62.2347 17.466 61.8843 18.0532C61.5339 18.6403 61.0983 19.1398 60.5775 19.5517C60.0566 19.9589 59.4719 20.2691 58.8232 20.4821C58.1793 20.6952 57.4904 20.8017 56.7565 20.8017C55.5159 20.8017 54.4127 20.4987 53.4468 19.8926C52.4809 19.2866 51.7209 18.4248 51.167 17.3074C50.613 16.19 50.336 14.8642 50.336 13.3301C50.336 11.7961 50.613 10.4703 51.167 9.35287C51.7209 8.23545 52.4809 7.37371 53.4468 6.76765C54.4127 6.16159 55.5159 5.85856 56.7565 5.85856C57.4904 5.85856 58.1793 5.96509 58.8232 6.17816C59.4719 6.39123 60.0566 6.70373 60.5775 7.11566C61.0983 7.52286 61.5339 8.02001 61.8843 8.60714C62.2347 9.18952 62.4762 9.85477 62.6087 10.6029ZM77.7277 13.3301C77.7277 14.8642 77.4507 16.19 76.8967 17.3074C76.3428 18.4248 75.5828 19.2866 74.6169 19.8926C73.651 20.4987 72.5478 20.8017 71.3072 20.8017C70.0667 20.8017 68.9635 20.4987 67.9976 19.8926C67.0317 19.2866 66.2717 18.4248 65.7178 17.3074C65.1638 16.19 64.8868 14.8642 64.8868 13.3301C64.8868 11.7961 65.1638 10.4703 65.7178 9.35287C66.2717 8.23545 67.0317 7.37371 67.9976 6.76765C68.9635 6.16159 70.0667 5.85856 71.3072 5.85856C72.5478 5.85856 73.651 6.16159 74.6169 6.76765C75.5828 7.37371 76.3428 8.23545 76.8967 9.35287C77.4507 10.4703 77.7277 11.7961 77.7277 13.3301ZM76.0231 13.3301C76.0231 12.0707 75.8124 11.0077 75.391 10.1412C74.9744 9.27475 74.4086 8.61897 73.6936 8.1739C72.9834 7.72882 72.1879 7.50628 71.3072 7.50628C70.4266 7.50628 69.6287 7.72882 68.9138 8.1739C68.2035 8.61897 67.6377 9.27475 67.2163 10.1412C66.7997 11.0077 66.5913 12.0707 66.5913 13.3301C66.5913 14.5896 66.7997 15.6526 67.2163 16.5191C67.6377 17.3855 68.2035 18.0413 68.9138 18.4864C69.6287 18.9315 70.4266 19.154 71.3072 19.154C72.1879 19.154 72.9834 18.9315 73.6936 18.4864C74.4086 18.0413 74.9744 17.3855 75.391 16.5191C75.8124 15.6526 76.0231 14.5896 76.0231 13.3301ZM80.6893 20.6029V6.05742H89.4109V7.61992H82.4507V12.5347H88.7575V14.0972H82.4507V20.6029H80.6893ZM92.4276 20.6029V6.05742H101.149V7.61992H94.189V12.5347H100.496V14.0972H94.189V20.6029H92.4276ZM104.166 20.6029V6.05742H112.944V7.61992H105.927V12.5347H112.49V14.0972H105.927V19.0404H113.058V20.6029H104.166ZM116.119 20.6029V6.05742H124.897V7.61992H117.88V12.5347H124.443V14.0972H117.88V19.0404H125.011V20.6029H116.119ZM133.697 20.6029V6.05742H135.459V19.0404H142.22V20.6029H133.697ZM146.709 6.05742V20.6029H144.947V6.05742H146.709ZM150.837 6.05742L155.155 18.3017H155.325L159.644 6.05742H161.49L156.149 20.6029H154.331L148.99 6.05742H150.837ZM163.756 20.6029V6.05742H172.534V7.61992H165.517V12.5347H172.08V14.0972H165.517V19.0404H172.648V20.6029H163.756Z" fill="#231F20"/>
<path d="M62.6087 10.6029V11.6029H63.8015L63.5934 10.4284L62.6087 10.6029ZM60.8474 10.6029L59.8679 10.8043L60.0321 11.6029H60.8474V10.6029ZM60.3005 9.26765L59.4684 9.82237L59.4732 9.8294L60.3005 9.26765ZM59.363 8.30174L58.7748 9.11047L58.7807 9.11478L58.7867 9.119L59.363 8.30174ZM58.1485 7.70515L57.863 8.66353L58.1485 7.70515ZM54.363 8.1739L53.8345 7.32495L53.832 7.32653L54.363 8.1739ZM52.6655 10.1412L51.7663 9.70387L51.7643 9.70786L52.6655 10.1412ZM52.6655 16.5191L51.7643 16.9524L51.7663 16.9564L52.6655 16.5191ZM54.363 18.4864L53.832 19.3338L53.8345 19.3353L54.363 18.4864ZM58.1485 18.9551L57.863 17.9968L58.1485 18.9551ZM59.363 18.3657L59.9442 19.1794L59.9462 19.178L59.363 18.3657ZM60.3005 17.3926L59.47 16.8356L59.4684 16.8379L60.3005 17.3926ZM60.8474 16.0574V15.0574H60.0336L59.8682 15.8542L60.8474 16.0574ZM62.6087 16.0574L63.5932 16.233L63.8029 15.0574H62.6087V16.0574ZM61.8843 18.0532L61.0256 17.5407V17.5407L61.8843 18.0532ZM60.5775 19.5517L61.1934 20.3396L61.1978 20.3361L60.5775 19.5517ZM58.8232 20.4821L58.5112 19.5321L58.5091 19.5328L58.8232 20.4821ZM53.4468 19.8926L52.9153 20.7397L53.4468 19.8926ZM51.167 17.3074L52.0629 16.8632L51.167 17.3074ZM51.167 9.35287L50.271 8.9087L51.167 9.35287ZM58.8232 6.17816L58.5091 7.12754L58.5112 7.12822L58.8232 6.17816ZM60.5775 7.11566L59.9571 7.90001L59.9616 7.90347L60.5775 7.11566ZM61.8843 8.60714L61.0256 9.1196L61.0274 9.12266L61.8843 8.60714ZM62.6087 9.60287H60.8474V11.6029H62.6087V9.60287ZM61.8269 10.4015C61.6993 9.78081 61.4703 9.21028 61.1278 8.7059L59.4732 9.8294C59.6515 10.0921 59.7871 10.4117 59.8679 10.8043L61.8269 10.4015ZM61.1325 8.71295C60.8099 8.22899 60.4113 7.81735 59.9393 7.48448L58.7867 9.119C59.0533 9.30697 59.2797 9.53926 59.4684 9.82235L61.1325 8.71295ZM59.9512 7.493C59.4921 7.15916 58.9844 6.91071 58.434 6.74676L57.863 8.66353C58.2028 8.76473 58.5047 8.91401 58.7748 9.11047L59.9512 7.493ZM58.434 6.74676C57.8926 6.5855 57.3322 6.50628 56.7565 6.50628V8.50628C57.1466 8.50628 57.5142 8.55964 57.863 8.66353L58.434 6.74676ZM56.7565 6.50628C55.6979 6.50628 54.7155 6.77652 53.8345 7.32495L54.8915 9.02284C55.4404 8.68112 56.0536 8.50628 56.7565 8.50628V6.50628ZM53.832 7.32653C52.9404 7.88526 52.2571 8.69466 51.7663 9.70387L53.5648 10.5786C53.9168 9.85484 54.3651 9.35268 54.894 9.02126L53.832 7.32653ZM51.7643 9.70786C51.2657 10.7447 51.0405 11.9653 51.0405 13.3301H53.0405C53.0405 12.1761 53.232 11.2707 53.5668 10.5746L51.7643 9.70786ZM51.0405 13.3301C51.0405 14.695 51.2657 15.9156 51.7643 16.9524L53.5668 16.0857C53.232 15.3896 53.0405 14.4842 53.0405 13.3301H51.0405ZM51.7663 16.9564C52.2571 17.9656 52.9404 18.775 53.832 19.3338L54.894 17.639C54.3651 17.3076 53.9168 16.8055 53.5648 16.0817L51.7663 16.9564ZM53.8345 19.3353C54.7155 19.8838 55.6979 20.154 56.7565 20.154V18.154C56.0536 18.154 55.4404 17.9792 54.8915 17.6375L53.8345 19.3353ZM56.7565 20.154C57.3322 20.154 57.8926 20.0748 58.434 19.9135L57.863 17.9968C57.5142 18.1007 57.1466 18.154 56.7565 18.154V20.154ZM58.434 19.9135C58.981 19.7506 59.4865 19.5064 59.9442 19.1794L58.7818 17.5519C58.5104 17.7458 58.2061 17.8946 57.863 17.9968L58.434 19.9135ZM59.9462 19.178C60.4147 18.8416 60.811 18.4296 61.1325 17.9473L59.4684 16.8379C59.2786 17.1227 59.05 17.3594 58.7798 17.5533L59.9462 19.178ZM61.131 17.9497C61.47 17.4443 61.6986 16.8767 61.8265 16.2606L59.8682 15.8542C59.7878 16.2419 59.6518 16.5645 59.47 16.8356L61.131 17.9497ZM60.8474 17.0574H62.6087V15.0574H60.8474V17.0574ZM61.6243 15.8818C61.5107 16.5186 61.3079 17.0676 61.0256 17.5407L62.743 18.5656C63.1615 17.8644 63.4416 17.0829 63.5932 16.233L61.6243 15.8818ZM61.0256 17.5407C60.7356 18.0266 60.3798 18.4331 59.9571 18.7674L61.1978 20.3361C61.8168 19.8465 62.3322 19.2539 62.743 18.5656L61.0256 17.5407ZM59.9616 18.7639C59.5348 19.0975 59.0536 19.3539 58.5112 19.5321L59.1353 21.4322C59.8902 21.1842 60.5785 20.8203 61.1934 20.3395L59.9616 18.7639ZM58.5091 19.5328C57.9745 19.7097 57.3924 19.8017 56.7565 19.8017V21.8017C57.5884 21.8017 58.3841 21.6808 59.1374 21.4315L58.5091 19.5328ZM56.7565 19.8017C55.6868 19.8017 54.771 19.543 53.9783 19.0456L52.9153 20.7397C54.0544 21.4544 55.3451 21.8017 56.7565 21.8017V19.8017ZM53.9783 19.0456C53.1832 18.5467 52.5429 17.8314 52.0629 16.8632L50.271 17.7516C50.899 19.0183 51.7786 20.0265 52.9153 20.7397L53.9783 19.0456ZM52.0629 16.8632C51.5913 15.912 51.336 14.7449 51.336 13.3301H49.336C49.336 14.9835 49.6347 16.468 50.271 17.7516L52.0629 16.8632ZM51.336 13.3301C51.336 11.9154 51.5913 10.7483 52.0629 9.79705L50.271 8.9087C49.6347 10.1923 49.336 11.6767 49.336 13.3301H51.336ZM52.0629 9.79705C52.5429 8.82894 53.1832 8.11358 53.9783 7.61471L52.9153 5.92058C51.7786 6.63383 50.899 7.64196 50.271 8.9087L52.0629 9.79705ZM53.9783 7.61471C54.771 7.11732 55.6868 6.85856 56.7565 6.85856V4.85856C55.3451 4.85856 54.0544 5.20585 52.9153 5.92058L53.9783 7.61471ZM56.7565 6.85856C57.3924 6.85856 57.9745 6.95064 58.5091 7.12754L59.1374 5.22878C58.3841 4.97954 57.5884 4.85856 56.7565 4.85856V6.85856ZM58.5112 7.12822C59.0513 7.30565 59.5311 7.56306 59.9571 7.89999L61.1978 6.33132C60.5822 5.8444 59.8925 5.4768 59.1353 5.2281L58.5112 7.12822ZM59.9616 7.90347C60.3818 8.23205 60.7363 8.63476 61.0256 9.11959L62.743 8.09468C62.3316 7.40526 61.8148 6.81366 61.1934 6.32785L59.9616 7.90347ZM61.0274 9.12266C61.3077 9.58851 61.5104 10.1357 61.6241 10.7774L63.5934 10.4284C63.442 9.57388 63.1617 8.79054 62.7412 8.09162L61.0274 9.12266ZM76.8967 17.3074L76.0008 16.8632V16.8632L76.8967 17.3074ZM74.6169 19.8926L75.1484 20.7397H75.1484L74.6169 19.8926ZM67.9976 19.8926L67.4661 20.7397L67.9976 19.8926ZM65.7178 17.3074L66.6137 16.8632L65.7178 17.3074ZM65.7178 9.35287L64.8218 8.9087L65.7178 9.35287ZM74.6169 6.76765L75.1484 5.92058H75.1484L74.6169 6.76765ZM76.8967 9.35287L76.0008 9.79705L76.8967 9.35287ZM75.391 10.1412L74.4898 10.5746L74.4918 10.5786L75.391 10.1412ZM73.6936 8.1739L73.1626 9.02126L73.1651 9.02284L73.6936 8.1739ZM68.9138 8.1739L68.3853 7.32495L68.3828 7.32653L68.9138 8.1739ZM67.2163 10.1412L66.317 9.70387L66.3151 9.70786L67.2163 10.1412ZM67.2163 16.5191L66.3151 16.9524L66.317 16.9564L67.2163 16.5191ZM68.9138 18.4864L68.3828 19.3338L68.3853 19.3353L68.9138 18.4864ZM73.6936 18.4864L73.1651 17.6374L73.1626 17.639L73.6936 18.4864ZM75.391 16.5191L74.4918 16.0817L74.4898 16.0857L75.391 16.5191ZM76.7277 13.3301C76.7277 14.7449 76.4724 15.912 76.0008 16.8632L77.7927 17.7516C78.429 16.468 78.7277 14.9835 78.7277 13.3301H76.7277ZM76.0008 16.8632C75.5208 17.8314 74.8805 18.5467 74.0854 19.0456L75.1484 20.7397C76.2851 20.0265 77.1647 19.0183 77.7927 17.7516L76.0008 16.8632ZM74.0854 19.0456C73.2927 19.543 72.3769 19.8017 71.3072 19.8017V21.8017C72.7186 21.8017 74.0093 21.4544 75.1484 20.7397L74.0854 19.0456ZM71.3072 19.8017C70.2376 19.8017 69.3218 19.543 68.5291 19.0456L67.4661 20.7397C68.6052 21.4544 69.8959 21.8017 71.3072 21.8017V19.8017ZM68.5291 19.0456C67.734 18.5467 67.0936 17.8314 66.6137 16.8632L64.8218 17.7516C65.4498 19.0183 66.3293 20.0265 67.4661 20.7397L68.5291 19.0456ZM66.6137 16.8632C66.1421 15.912 65.8868 14.7449 65.8868 13.3301H63.8868C63.8868 14.9835 64.1855 16.468 64.8218 17.7516L66.6137 16.8632ZM65.8868 13.3301C65.8868 11.9154 66.1421 10.7483 66.6137 9.79705L64.8218 8.9087C64.1855 10.1923 63.8868 11.6767 63.8868 13.3301H65.8868ZM66.6137 9.79705C67.0936 8.82894 67.734 8.11358 68.5291 7.61471L67.4661 5.92058C66.3293 6.63383 65.4498 7.64196 64.8218 8.9087L66.6137 9.79705ZM68.5291 7.61471C69.3218 7.11732 70.2376 6.85856 71.3072 6.85856V4.85856C69.8959 4.85856 68.6052 5.20585 67.4661 5.92058L68.5291 7.61471ZM71.3072 6.85856C72.3769 6.85856 73.2927 7.11732 74.0854 7.61471L75.1484 5.92058C74.0093 5.20585 72.7186 4.85856 71.3072 4.85856V6.85856ZM74.0854 7.61471C74.8805 8.11358 75.5208 8.82894 76.0008 9.79705L77.7927 8.9087C77.1647 7.64196 76.2851 6.63383 75.1484 5.92058L74.0854 7.61471ZM76.0008 9.79705C76.4724 10.7483 76.7277 11.9154 76.7277 13.3301H78.7277C78.7277 11.6767 78.429 10.1923 77.7927 8.9087L76.0008 9.79705ZM77.0231 13.3301C77.0231 11.9639 76.7951 10.7418 76.2903 9.70387L74.4918 10.5786C74.8298 11.2736 75.0231 12.1775 75.0231 13.3301H77.0231ZM76.2923 9.70786C75.8053 8.69513 75.1201 7.884 74.2221 7.32495L73.1651 9.02284C73.697 9.35395 74.1435 9.85437 74.4898 10.5746L76.2923 9.70786ZM74.2246 7.32653C73.347 6.77655 72.3658 6.50628 71.3072 6.50628V8.50628C72.0101 8.50628 72.6198 8.6811 73.1626 9.02126L74.2246 7.32653ZM71.3072 6.50628C70.2487 6.50628 69.2663 6.77652 68.3853 7.32495L69.4423 9.02284C69.9912 8.68112 70.6044 8.50628 71.3072 8.50628V6.50628ZM68.3828 7.32653C67.4912 7.88526 66.8079 8.69466 66.317 9.70387L68.1156 10.5786C68.4676 9.85484 68.9159 9.35268 69.4448 9.02126L68.3828 7.32653ZM66.3151 9.70786C65.8165 10.7447 65.5913 11.9653 65.5913 13.3301H67.5913C67.5913 12.1761 67.7828 11.2707 68.1175 10.5746L66.3151 9.70786ZM65.5913 13.3301C65.5913 14.695 65.8165 15.9156 66.3151 16.9524L68.1175 16.0857C67.7828 15.3896 67.5913 14.4842 67.5913 13.3301H65.5913ZM66.317 16.9564C66.8079 17.9656 67.4912 18.775 68.3828 19.3338L69.4448 17.639C68.9159 17.3076 68.4676 16.8055 68.1156 16.0817L66.317 16.9564ZM68.3853 19.3353C69.2663 19.8838 70.2487 20.154 71.3072 20.154V18.154C70.6044 18.154 69.9912 17.9792 69.4423 17.6375L68.3853 19.3353ZM71.3072 20.154C72.3658 20.154 73.347 19.8837 74.2246 19.3338L73.1626 17.639C72.6198 17.9792 72.0101 18.154 71.3072 18.154V20.154ZM74.2221 19.3353C75.1201 18.7763 75.8053 17.9652 76.2923 16.9524L74.4898 16.0857C74.1435 16.8059 73.697 17.3063 73.1651 17.6375L74.2221 19.3353ZM76.2903 16.9564C76.7951 15.9185 77.0231 14.6964 77.0231 13.3301H75.0231C75.0231 14.4828 74.8298 15.3867 74.4918 16.0817L76.2903 16.9564ZM80.6893 20.6029H79.6893V21.6029H80.6893V20.6029ZM80.6893 6.05742V5.05742H79.6893V6.05742H80.6893ZM89.4109 6.05742H90.4109V5.05742H89.4109V6.05742ZM89.4109 7.61992V8.61992H90.4109V7.61992H89.4109ZM82.4507 7.61992V6.61992H81.4507V7.61992H82.4507ZM82.4507 12.5347H81.4507V13.5347H82.4507V12.5347ZM88.7575 12.5347H89.7575V11.5347H88.7575V12.5347ZM88.7575 14.0972V15.0972H89.7575V14.0972H88.7575ZM82.4507 14.0972V13.0972H81.4507V14.0972H82.4507ZM82.4507 20.6029V21.6029H83.4507V20.6029H82.4507ZM81.6893 20.6029V6.05742H79.6893V20.6029H81.6893ZM80.6893 7.05742H89.4109V5.05742H80.6893V7.05742ZM88.4109 6.05742V7.61992H90.4109V6.05742H88.4109ZM89.4109 6.61992H82.4507V8.61992H89.4109V6.61992ZM81.4507 7.61992V12.5347H83.4507V7.61992H81.4507ZM82.4507 13.5347H88.7575V11.5347H82.4507V13.5347ZM87.7575 12.5347V14.0972H89.7575V12.5347H87.7575ZM88.7575 13.0972H82.4507V15.0972H88.7575V13.0972ZM81.4507 14.0972V20.6029H83.4507V14.0972H81.4507ZM82.4507 19.6029H80.6893V21.6029H82.4507V19.6029ZM92.4276 20.6029H91.4276V21.6029H92.4276V20.6029ZM92.4276 6.05742V5.05742H91.4276V6.05742H92.4276ZM101.149 6.05742H102.149V5.05742H101.149V6.05742ZM101.149 7.61992V8.61992H102.149V7.61992H101.149ZM94.189 7.61992V6.61992H93.189V7.61992H94.189ZM94.189 12.5347H93.189V13.5347H94.189V12.5347ZM100.496 12.5347H101.496V11.5347H100.496V12.5347ZM100.496 14.0972V15.0972H101.496V14.0972H100.496ZM94.189 14.0972V13.0972H93.189V14.0972H94.189ZM94.189 20.6029V21.6029H95.189V20.6029H94.189ZM93.4276 20.6029V6.05742H91.4276V20.6029H93.4276ZM92.4276 7.05742H101.149V5.05742H92.4276V7.05742ZM100.149 6.05742V7.61992H102.149V6.05742H100.149ZM101.149 6.61992H94.189V8.61992H101.149V6.61992ZM93.189 7.61992V12.5347H95.189V7.61992H93.189ZM94.189 13.5347H100.496V11.5347H94.189V13.5347ZM99.4958 12.5347V14.0972H101.496V12.5347H99.4958ZM100.496 13.0972H94.189V15.0972H100.496V13.0972ZM93.189 14.0972V20.6029H95.189V14.0972H93.189ZM94.189 19.6029H92.4276V21.6029H94.189V19.6029ZM104.166 20.6029H103.166V21.6029H104.166V20.6029ZM104.166 6.05742V5.05742H103.166V6.05742H104.166ZM112.944 6.05742H113.944V5.05742H112.944V6.05742ZM112.944 7.61992V8.61992H113.944V7.61992H112.944ZM105.927 7.61992V6.61992H104.927V7.61992H105.927ZM105.927 12.5347H104.927V13.5347H105.927V12.5347ZM112.49 12.5347H113.49V11.5347H112.49V12.5347ZM112.49 14.0972V15.0972H113.49V14.0972H112.49ZM105.927 14.0972V13.0972H104.927V14.0972H105.927ZM105.927 19.0404H104.927V20.0404H105.927V19.0404ZM113.058 19.0404H114.058V18.0404H113.058V19.0404ZM113.058 20.6029V21.6029H114.058V20.6029H113.058ZM105.166 20.6029V6.05742H103.166V20.6029H105.166ZM104.166 7.05742H112.944V5.05742H104.166V7.05742ZM111.944 6.05742V7.61992H113.944V6.05742H111.944ZM112.944 6.61992H105.927V8.61992H112.944V6.61992ZM104.927 7.61992V12.5347H106.927V7.61992H104.927ZM105.927 13.5347H112.49V11.5347H105.927V13.5347ZM111.49 12.5347V14.0972H113.49V12.5347H111.49ZM112.49 13.0972H105.927V15.0972H112.49V13.0972ZM104.927 14.0972V19.0404H106.927V14.0972H104.927ZM105.927 20.0404H113.058V18.0404H105.927V20.0404ZM112.058 19.0404V20.6029H114.058V19.0404H112.058ZM113.058 19.6029H104.166V21.6029H113.058V19.6029ZM116.119 20.6029H115.119V21.6029H116.119V20.6029ZM116.119 6.05742V5.05742H115.119V6.05742H116.119ZM124.897 6.05742H125.897V5.05742H124.897V6.05742ZM124.897 7.61992V8.61992H125.897V7.61992H124.897ZM117.88 7.61992V6.61992H116.88V7.61992H117.88ZM117.88 12.5347H116.88V13.5347H117.88V12.5347ZM124.443 12.5347H125.443V11.5347H124.443V12.5347ZM124.443 14.0972V15.0972H125.443V14.0972H124.443ZM117.88 14.0972V13.0972H116.88V14.0972H117.88ZM117.88 19.0404H116.88V20.0404H117.88V19.0404ZM125.011 19.0404H126.011V18.0404H125.011V19.0404ZM125.011 20.6029V21.6029H126.011V20.6029H125.011ZM117.119 20.6029V6.05742H115.119V20.6029H117.119ZM116.119 7.05742H124.897V5.05742H116.119V7.05742ZM123.897 6.05742V7.61992H125.897V6.05742H123.897ZM124.897 6.61992H117.88V8.61992H124.897V6.61992ZM116.88 7.61992V12.5347H118.88V7.61992H116.88ZM117.88 13.5347H124.443V11.5347H117.88V13.5347ZM123.443 12.5347V14.0972H125.443V12.5347H123.443ZM124.443 13.0972H117.88V15.0972H124.443V13.0972ZM116.88 14.0972V19.0404H118.88V14.0972H116.88ZM117.88 20.0404H125.011V18.0404H117.88V20.0404ZM124.011 19.0404V20.6029H126.011V19.0404H124.011ZM125.011 19.6029H116.119V21.6029H125.011V19.6029ZM133.697 20.6029H132.697V21.6029H133.697V20.6029ZM133.697 6.05742V5.05742H132.697V6.05742H133.697ZM135.459 6.05742H136.459V5.05742H135.459V6.05742ZM135.459 19.0404H134.459V20.0404H135.459V19.0404ZM142.22 19.0404H143.22V18.0404H142.22V19.0404ZM142.22 20.6029V21.6029H143.22V20.6029H142.22ZM134.697 20.6029V6.05742H132.697V20.6029H134.697ZM133.697 7.05742H135.459V5.05742H133.697V7.05742ZM134.459 6.05742V19.0404H136.459V6.05742H134.459ZM135.459 20.0404H142.22V18.0404H135.459V20.0404ZM141.22 19.0404V20.6029H143.22V19.0404H141.22ZM142.22 19.6029H133.697V21.6029H142.22V19.6029ZM146.709 6.05742H147.709V5.05742H146.709V6.05742ZM146.709 20.6029V21.6029H147.709V20.6029H146.709ZM144.947 20.6029H143.947V21.6029H144.947V20.6029ZM144.947 6.05742V5.05742H143.947V6.05742H144.947ZM145.709 6.05742V20.6029H147.709V6.05742H145.709ZM146.709 19.6029H144.947V21.6029H146.709V19.6029ZM145.947 20.6029V6.05742H143.947V20.6029H145.947ZM144.947 7.05742H146.709V5.05742H144.947V7.05742ZM150.837 6.05742L151.78 5.72483L151.544 5.05742H150.837V6.05742ZM155.155 18.3017L154.212 18.6343L154.447 19.3017H155.155V18.3017ZM155.325 18.3017V19.3017H156.033L156.268 18.6343L155.325 18.3017ZM159.644 6.05742V5.05742H158.936L158.7 5.72483L159.644 6.05742ZM161.49 6.05742L162.429 6.40211L162.923 5.05742H161.49V6.05742ZM156.149 20.6029V21.6029H156.847L157.088 20.9476L156.149 20.6029ZM154.331 20.6029L153.392 20.9476L153.633 21.6029H154.331V20.6029ZM148.99 6.05742V5.05742H147.558L148.051 6.40211L148.99 6.05742ZM149.894 6.39001L154.212 18.6343L156.098 17.9691L151.78 5.72483L149.894 6.39001ZM155.155 19.3017H155.325V17.3017H155.155V19.3017ZM156.268 18.6343L160.587 6.39001L158.7 5.72483L154.382 17.9691L156.268 18.6343ZM159.644 7.05742H161.49V5.05742H159.644V7.05742ZM160.551 5.71273L155.21 20.2582L157.088 20.9476L162.429 6.40211L160.551 5.71273ZM156.149 19.6029H154.331V21.6029H156.149V19.6029ZM155.27 20.2582L149.929 5.71273L148.051 6.40211L153.392 20.9476L155.27 20.2582ZM148.99 7.05742H150.837V5.05742H148.99V7.05742ZM163.756 20.6029H162.756V21.6029H163.756V20.6029ZM163.756 6.05742V5.05742H162.756V6.05742H163.756ZM172.534 6.05742H173.534V5.05742H172.534V6.05742ZM172.534 7.61992V8.61992H173.534V7.61992H172.534ZM165.517 7.61992V6.61992H164.517V7.61992H165.517ZM165.517 12.5347H164.517V13.5347H165.517V12.5347ZM172.08 12.5347H173.08V11.5347H172.08V12.5347ZM172.08 14.0972V15.0972H173.08V14.0972H172.08ZM165.517 14.0972V13.0972H164.517V14.0972H165.517ZM165.517 19.0404H164.517V20.0404H165.517V19.0404ZM172.648 19.0404H173.648V18.0404H172.648V19.0404ZM172.648 20.6029V21.6029H173.648V20.6029H172.648ZM164.756 20.6029V6.05742H162.756V20.6029H164.756ZM163.756 7.05742H172.534V5.05742H163.756V7.05742ZM171.534 6.05742V7.61992H173.534V6.05742H171.534ZM172.534 6.61992H165.517V8.61992H172.534V6.61992ZM164.517 7.61992V12.5347H166.517V7.61992H164.517ZM165.517 13.5347H172.08V11.5347H165.517V13.5347ZM171.08 12.5347V14.0972H173.08V12.5347H171.08ZM172.08 13.0972H165.517V15.0972H172.08V13.0972ZM164.517 14.0972V19.0404H166.517V14.0972H164.517ZM165.517 20.0404H172.648V18.0404H165.517V20.0404ZM171.648 19.0404V20.6029H173.648V19.0404H171.648ZM172.648 19.6029H163.756V21.6029H172.648V19.6029Z" fill="white" mask="url(#path-9-inside-1_127_8)"/>
</svg>
