<svg width="27" height="27" viewBox="0 0 27 27" fill="none" xmlns="http://www.w3.org/2000/svg">
<path d="M13.4204 6.33618C9.71673 6.33618 6.64795 9.35205 6.64795 13.1087C6.64795 16.8653 9.66382 19.8812 13.4204 19.8812C17.1771 19.8812 20.1929 16.8124 20.1929 13.1087C20.1929 9.40496 17.1241 6.33618 13.4204 6.33618ZM13.4204 17.4473C11.0395 17.4473 9.08181 15.4896 9.08181 13.1087C9.08181 10.7277 11.0395 8.77004 13.4204 8.77004C15.8014 8.77004 17.7591 10.7277 17.7591 13.1087C17.7591 15.4896 15.8014 17.4473 13.4204 17.4473Z" fill="white"/>
<path d="M20.4575 7.71185C21.3049 7.71185 21.9919 7.02488 21.9919 6.17746C21.9919 5.33004 21.3049 4.64307 20.4575 4.64307C19.6101 4.64307 18.9231 5.33004 18.9231 6.17746C18.9231 7.02488 19.6101 7.71185 20.4575 7.71185Z" fill="white"/>
<path d="M24.4258 2.20911C23.0501 0.780535 21.0925 0.0397949 18.8703 0.0397949H7.97079C3.36761 0.0397949 0.298828 3.10858 0.298828 7.71175V18.5583C0.298828 20.8334 1.03957 22.7911 2.52105 24.2197C3.94962 25.5954 5.85438 26.2832 8.0237 26.2832H18.8173C21.0925 26.2832 22.9972 25.5424 24.3729 24.2197C25.8015 22.844 26.5422 20.8864 26.5422 18.6112V7.71175C26.5422 5.48953 25.8015 3.58477 24.4258 2.20911ZM24.2142 18.6112C24.2142 20.2514 23.6322 21.5742 22.6798 22.4737C21.7274 23.3731 20.4046 23.8493 18.8173 23.8493H8.0237C6.43639 23.8493 5.11364 23.3731 4.16126 22.4737C3.20888 21.5213 2.73269 20.1985 2.73269 18.5583V7.71175C2.73269 6.12445 3.20888 4.8017 4.16126 3.84932C5.06073 2.94985 6.43639 2.47366 8.0237 2.47366H18.9232C20.5105 2.47366 21.8332 2.94985 22.7856 3.90223C23.6851 4.85461 24.2142 6.17736 24.2142 7.71175V18.6112Z" fill="white"/>
</svg>
